<?xml version="1.0" encoding="iso-8859-1"?>
<!-- Generator: Adobe Illustrator 19.0.0, SVG Export Plug-In . SVG Version: 6.00 Build 0)  -->
<svg version="1.1" id="Capa_1" xmlns="http://www.w3.org/2000/svg" xmlns:xlink="http://www.w3.org/1999/xlink" x="0px" y="0px"
	 viewBox="0 0 58 58" style="enable-background:new 0 0 58 58;" xml:space="preserve">
<path style="fill:#ECF0F1;" d="M55.281,56H2.719C1.217,56,0,54.783,0,53.281V4.719C0,3.217,1.217,2,2.719,2h52.563
	C56.783,2,58,3.217,58,4.719v48.563C58,54.783,56.783,56,55.281,56z"/>
<rect x="6" y="8" style="fill:#C6E700;" width="46" height="10"/>
<circle style="fill:#556080;" cx="9" cy="27" r="3"/>
<circle style="fill:#556080;" cx="19" cy="27" r="3"/>
<circle style="fill:#556080;" cx="29" cy="27" r="3"/>
<circle style="fill:#556080;" cx="9" cy="37" r="3"/>
<circle style="fill:#556080;" cx="19" cy="37" r="3"/>
<circle style="fill:#556080;" cx="29" cy="37" r="3"/>
<circle style="fill:#556080;" cx="9" cy="47" r="3"/>
<circle style="fill:#556080;" cx="19" cy="47" r="3"/>
<circle style="fill:#556080;" cx="29" cy="47" r="3"/>
<rect x="37" y="35" style="fill:#24AE5F;" width="14" height="14"/>
<rect x="37" y="24" style="fill:#F0785A;" width="14" height="6"/>
<path style="fill:#8CA40E;" d="M48,16c-0.256,0-0.512-0.098-0.707-0.293l-4-4c-0.391-0.391-0.391-1.023,0-1.414s1.023-0.391,1.414,0
	l4,4c0.391,0.391,0.391,1.023,0,1.414C48.512,15.902,48.256,16,48,16z"/>
<path style="fill:#8CA40E;" d="M44,16c-0.256,0-0.512-0.098-0.707-0.293c-0.391-0.391-0.391-1.023,0-1.414l4-4
	c0.391-0.391,1.023-0.391,1.414,0s0.391,1.023,0,1.414l-4,4C44.512,15.902,44.256,16,44,16z"/>
<path style="fill:#8CA40E;" d="M40,16c-0.256,0-0.512-0.098-0.707-0.293l-4-4c-0.391-0.391-0.391-1.023,0-1.414s1.023-0.391,1.414,0
	l4,4c0.391,0.391,0.391,1.023,0,1.414C40.512,15.902,40.256,16,40,16z"/>
<path style="fill:#8CA40E;" d="M36,16c-0.256,0-0.512-0.098-0.707-0.293c-0.391-0.391-0.391-1.023,0-1.414l4-4
	c0.391-0.391,1.023-0.391,1.414,0s0.391,1.023,0,1.414l-4,4C36.512,15.902,36.256,16,36,16z"/>
<path style="fill:#8CA40E;" d="M32,16c-0.256,0-0.512-0.098-0.707-0.293l-4-4c-0.391-0.391-0.391-1.023,0-1.414s1.023-0.391,1.414,0
	l4,4c0.391,0.391,0.391,1.023,0,1.414C32.512,15.902,32.256,16,32,16z"/>
<path style="fill:#8CA40E;" d="M28,16c-0.256,0-0.512-0.098-0.707-0.293c-0.391-0.391-0.391-1.023,0-1.414l4-4
	c0.391-0.391,1.023-0.391,1.414,0s0.391,1.023,0,1.414l-4,4C28.512,15.902,28.256,16,28,16z"/>
<path style="fill:#8CA40E;" d="M24,16c-0.256,0-0.512-0.098-0.707-0.293l-4-4c-0.391-0.391-0.391-1.023,0-1.414s1.023-0.391,1.414,0
	l4,4c0.391,0.391,0.391,1.023,0,1.414C24.512,15.902,24.256,16,24,16z"/>
<path style="fill:#8CA40E;" d="M20,16c-0.256,0-0.512-0.098-0.707-0.293c-0.391-0.391-0.391-1.023,0-1.414l4-4
	c0.391-0.391,1.023-0.391,1.414,0s0.391,1.023,0,1.414l-4,4C20.512,15.902,20.256,16,20,16z"/>
<g>
</g>
<g>
</g>
<g>
</g>
<g>
</g>
<g>
</g>
<g>
</g>
<g>
</g>
<g>
</g>
<g>
</g>
<g>
</g>
<g>
</g>
<g>
</g>
<g>
</g>
<g>
</g>
<g>
</g>
</svg>
