<?xml version="1.0" encoding="iso-8859-1"?>
<!-- Generator: Adobe Illustrator 19.0.0, SVG Export Plug-In . SVG Version: 6.00 Build 0)  -->
<svg version="1.1" id="Capa_1" xmlns="http://www.w3.org/2000/svg" xmlns:xlink="http://www.w3.org/1999/xlink" x="0px" y="0px"
	 viewBox="0 0 57 57" style="enable-background:new 0 0 57 57;" xml:space="preserve">
<rect x="9.272" y="15" style="fill:#D75A4A;" width="26" height="42"/>
<polygon style="fill:#ECF0F1;" points="26.272,9 19.279,9 7.272,4 7.272,0 26.272,6 "/>
<path style="fill:#D1D4D1;" d="M49.552,42.781c0.884-11.726-1.774-16.556-3.283-18.786c-0.547-0.809-1.444-0.81-1.992-0.001
	c-1.51,2.229-3.567,7.069-2.931,18.788C41.383,43.471,41.98,44,42.669,44h5.559C48.918,44,49.5,43.469,49.552,42.781z"/>
<rect x="9.272" y="28" style="fill:#F0C419;" width="9" height="17"/>
<rect x="18.272" y="9" style="fill:#BDC3C7;" width="8" height="6"/>
<rect x="22.272" y="15" style="fill:#BC4E46;" width="13" height="42"/>
<rect x="19.272" y="14" style="fill:#556080;" width="6" height="2"/>
<path style="fill:#556080;" d="M31.272,8h-21c-0.553,0-1,0.448-1,1s0.447,1,1,1h21c7.168,0,13,5.832,13,13c0,0.552,0.447,1,1,1
	s1-0.448,1-1C46.272,14.729,39.544,8,31.272,8z"/>
<g>
</g>
<g>
</g>
<g>
</g>
<g>
</g>
<g>
</g>
<g>
</g>
<g>
</g>
<g>
</g>
<g>
</g>
<g>
</g>
<g>
</g>
<g>
</g>
<g>
</g>
<g>
</g>
<g>
</g>
</svg>
