<?xml version="1.0" encoding="iso-8859-1"?>
<!-- Generator: Adobe Illustrator 19.0.0, SVG Export Plug-In . SVG Version: 6.00 Build 0)  -->
<svg version="1.1" id="Capa_1" xmlns="http://www.w3.org/2000/svg" xmlns:xlink="http://www.w3.org/1999/xlink" x="0px" y="0px"
	 viewBox="0 0 58 58" style="enable-background:new 0 0 58 58;" xml:space="preserve">
<path style="fill:#F0C419;" d="M33.625,25.916l-4.695-5.348c-0.651,5.912-2.343,10.469-2.343,10.469
	c0-7.806-2.81-14.744-6.415-20.447l-0.575-0.655l-4.584,5.222C9.099,21.894,6.586,31.042,8.53,39.793
	c0.017,0.077,0.034,0.154,0.052,0.231c0,0-3.554-5.03-5.174-11.25c-4.41,7.043-3.809,16.3,1.83,22.724
	c7.555,8.607,20.914,8.668,28.552,0.185C40.337,44.412,40.079,33.269,33.625,25.916z"/>
<path style="fill:#E57E25;" d="M27.138,42.61l-2.236-2.547c-0.31,2.815-1.116,4.986-1.116,4.986c0-3.717-1.338-7.021-3.055-9.737
	L20.458,35l-2.183,2.487c-2.816,3.208-4.013,7.565-3.087,11.732c0.008,0.037,0.016,0.073,0.025,0.11c0,0-1.693-2.395-2.464-5.357
	c-2.1,3.354-1.814,7.762,0.872,10.821c3.598,4.099,9.959,4.128,13.597,0.088C30.335,51.419,30.212,46.112,27.138,42.61z"/>
<path style="fill:#ECF0F1;" d="M29.665,41.796c-0.114,0-0.229-0.02-0.342-0.061c-0.519-0.188-0.787-0.762-0.598-1.281l0.684-1.88
	c0.19-0.519,0.766-0.785,1.282-0.598c0.519,0.188,0.787,0.762,0.598,1.281l-0.684,1.88C30.457,41.544,30.074,41.796,29.665,41.796z
	 M31.716,36.157c-0.113,0-0.229-0.02-0.341-0.061c-0.52-0.188-0.787-0.762-0.599-1.281l0.683-1.88
	c0.189-0.519,0.765-0.785,1.281-0.598c0.52,0.188,0.787,0.762,0.599,1.281l-0.683,1.88C32.508,35.905,32.125,36.157,31.716,36.157z
	 M33.766,30.519c-0.114,0-0.229-0.02-0.342-0.061c-0.519-0.188-0.787-0.762-0.598-1.281l0.684-1.88
	c0.189-0.52,0.764-0.784,1.282-0.598c0.519,0.188,0.787,0.762,0.598,1.281l-0.684,1.88C34.558,30.267,34.175,30.519,33.766,30.519z
	 M35.816,24.88c-0.114,0-0.229-0.02-0.342-0.061c-0.519-0.188-0.787-0.762-0.598-1.281l0.684-1.88
	c0.189-0.519,0.765-0.785,1.282-0.598c0.519,0.188,0.787,0.762,0.598,1.281l-0.684,1.88C36.608,24.628,36.225,24.88,35.816,24.88z"
	/>
<path style="fill:#ECF0F1;" d="M15.5,45c-0.248,0-0.496-0.092-0.69-0.276c-0.4-0.381-0.415-1.014-0.034-1.413l0.286-0.3
	c0.382-0.401,1.015-0.414,1.414-0.034c0.4,0.381,0.415,1.014,0.034,1.413l-0.286,0.3C16.027,44.896,15.764,45,15.5,45z
	 M18.548,41.808c-0.248,0-0.497-0.092-0.69-0.276c-0.399-0.382-0.415-1.015-0.033-1.414l1.381-1.447
	c0.382-0.399,1.015-0.413,1.414-0.033c0.399,0.382,0.415,1.015,0.033,1.414l-1.381,1.447C19.075,41.704,18.812,41.808,18.548,41.808
	z M22.69,37.467c-0.249,0-0.497-0.092-0.69-0.276c-0.399-0.382-0.414-1.015-0.033-1.414l1.381-1.446
	c0.381-0.4,1.015-0.414,1.414-0.033c0.399,0.382,0.414,1.015,0.033,1.414l-1.381,1.446C23.217,37.363,22.954,37.467,22.69,37.467z
	 M26.833,33.127c-0.249,0-0.497-0.092-0.69-0.276c-0.399-0.382-0.414-1.015-0.033-1.414l1.381-1.446
	c0.381-0.401,1.015-0.414,1.414-0.033c0.399,0.382,0.414,1.015,0.033,1.414l-1.381,1.446C27.36,33.023,27.097,33.127,26.833,33.127z
	 M30.976,28.787c-0.248,0-0.497-0.092-0.69-0.276c-0.399-0.382-0.415-1.015-0.033-1.414l1.381-1.447
	c0.382-0.399,1.015-0.413,1.414-0.033c0.399,0.382,0.415,1.015,0.033,1.414L31.7,28.478C31.503,28.684,31.24,28.787,30.976,28.787z
	 M35.119,24.446c-0.249,0-0.497-0.092-0.69-0.276c-0.399-0.382-0.414-1.015-0.033-1.414l1.381-1.446
	c0.381-0.401,1.015-0.414,1.414-0.033c0.399,0.382,0.414,1.015,0.033,1.414l-1.381,1.446C35.646,24.343,35.383,24.446,35.119,24.446
	z"/>
<path style="fill:#ECF0F1;" d="M18.5,30c-0.4,0-0.778-0.242-0.932-0.638c-0.2-0.515,0.055-1.095,0.57-1.294l1.224-0.476
	c0.514-0.204,1.094,0.055,1.294,0.569s-0.055,1.095-0.57,1.294l-1.224,0.476C18.743,29.979,18.621,30,18.5,30z M23.453,28.074
	c-0.401,0-0.779-0.242-0.933-0.638c-0.2-0.515,0.055-1.094,0.57-1.294l1.864-0.725c0.518-0.202,1.095,0.056,1.294,0.569
	c0.2,0.515-0.055,1.094-0.57,1.294l-1.864,0.725C23.695,28.053,23.573,28.074,23.453,28.074z M29.044,25.899
	c-0.4,0-0.778-0.242-0.932-0.638c-0.2-0.515,0.055-1.095,0.57-1.294l1.864-0.725c0.513-0.203,1.094,0.055,1.294,0.569
	s-0.055,1.095-0.57,1.294l-1.864,0.725C29.287,25.878,29.165,25.899,29.044,25.899z M34.637,23.725
	c-0.401,0-0.779-0.242-0.933-0.638c-0.2-0.515,0.055-1.094,0.57-1.294l1.864-0.725c0.519-0.202,1.095,0.056,1.294,0.569
	c0.2,0.515-0.055,1.094-0.57,1.294l-1.864,0.725C34.879,23.703,34.757,23.725,34.637,23.725z"/>
<path style="fill:#BDC3C7;" d="M37.981,19.33L37.981,19.33c-0.601-0.601-0.644-1.56-0.1-2.213l7.257-8.479l3.536,3.536l-8.479,7.257
	C39.541,19.974,38.582,19.931,37.981,19.33z"/>
<path style="fill:#38454F;" d="M57.5,0h-3.724l-7.153,7.153c0.331,0.087,0.646,0.251,0.905,0.51l2.121,2.121
	c0.258,0.258,0.423,0.573,0.509,0.905L57.5,3.347V0z"/>
<path style="fill:#556080;" d="M46.82,12.613l-2.121-2.121c-0.778-0.778-0.778-2.051,0-2.828l0,0c0.778-0.778,2.051-0.778,2.828,0
	l2.121,2.121c0.778,0.778,0.778,2.051,0,2.828l0,0C48.871,13.391,47.598,13.391,46.82,12.613z"/>
<g>
</g>
<g>
</g>
<g>
</g>
<g>
</g>
<g>
</g>
<g>
</g>
<g>
</g>
<g>
</g>
<g>
</g>
<g>
</g>
<g>
</g>
<g>
</g>
<g>
</g>
<g>
</g>
<g>
</g>
</svg>
