<?xml version="1.0" encoding="iso-8859-1"?>
<!-- Generator: Adobe Illustrator 19.0.0, SVG Export Plug-In . SVG Version: 6.00 Build 0)  -->
<svg version="1.1" id="Capa_1" xmlns="http://www.w3.org/2000/svg" xmlns:xlink="http://www.w3.org/1999/xlink" x="0px" y="0px"
	 viewBox="0 0 58 58" style="enable-background:new 0 0 58 58;" xml:space="preserve">
<path style="fill:#E6E7E8;" d="M11,33C4.925,33,0,37.925,0,44s4.925,11,11,11s11-4.925,11-11S17.075,33,11,33z M11,51
	c-3.859,0-7-3.14-7-7s3.141-7,7-7s7,3.14,7,7S14.859,51,11,51z"/>
<path style="fill:#C9CFD3;" d="M11,34c1.63,0,3.172,0.364,4.563,1H17v-8c0-1.01-0.819-2-1.828-2H6.828C5.819,25,5,25.99,5,27v8
	h0.437C6.828,34.364,9.37,34,11,34z"/>
<path style="fill:#5E5F62;" d="M11,31c-0.553,0-1-0.448-1-1v-2c0-0.552,0.447-1,1-1s1,0.448,1,1v2C12,30.552,11.553,31,11,31z"/>
<path style="fill:#E6E7E8;" d="M54.778,24.222c-4.296-4.296-11.261-4.296-15.556,0c-4.296,4.296-4.296,11.261,0,15.556
	c4.296,4.296,11.261,4.296,15.556,0C59.074,35.482,59.074,28.518,54.778,24.222z M51.95,36.95c-2.729,2.729-7.17,2.729-9.9,0
	c-2.729-2.729-2.729-7.17,0-9.899c2.729-2.729,7.17-2.729,9.9,0C54.679,29.78,54.679,34.221,51.95,36.95z"/>
<path style="fill:#C9CFD3;" d="M40.05,25.05c1.153-1.153,2.5-1.985,3.934-2.52L45,21.515l-5.778-5.778
	c-0.714-0.714-1.993-0.835-2.707-0.121l-5.899,5.899c-0.714,0.714-0.593,1.993,0.121,2.707L36.515,30l0.309-0.309
	C37.358,28.257,38.898,26.203,40.05,25.05z"/>
<path style="fill:#5E5F62;" d="M37.101,23.101c-0.256,0-0.512-0.098-0.707-0.293l-1.414-1.414c-0.391-0.391-0.391-1.023,0-1.414
	s1.023-0.391,1.414,0l1.414,1.414c0.391,0.391,0.391,1.023,0,1.414C37.612,23.003,37.356,23.101,37.101,23.101z"/>
<path style="fill:#E6E7E8;" d="M34.642,12.892c1.219-1.079,1.359-2.945,0.298-4.19l-3.244-3.805
	c-1.029-1.208-3.019-1.368-4.229-0.336c-0.041,0.035-0.071,0.078-0.11,0.115l-3.186-0.254C23.632,3.554,22.683,3,21.625,3
	c-0.319,0-0.637,0.051-0.941,0.152l-4.745,1.576c-1.339,0.445-2.148,1.75-2.036,3.098l-2.413,2.119
	c-0.053-0.006-0.104-0.022-0.157-0.026c-1.642-0.091-3.081,1.162-3.188,2.8l-0.323,4.99C7.73,19.146,8.669,20.412,10,20.788V25
	c0,0.552,0.447,1,1,1s1-0.448,1-1v-4.348c1.004-0.436,1.734-1.401,1.81-2.556l0.322-4.989c0.052-0.797-0.212-1.567-0.74-2.171
	l1.391-1.221c0.549,0.538,1.298,0.859,2.106,0.859c0.319,0,0.637-0.051,0.941-0.152l4.745-1.576
	c1.099-0.365,1.834-1.313,2.005-2.385l1.845,0.147c-0.06,0.765,0.17,1.553,0.706,2.182l3.244,3.805
	c0.569,0.668,1.402,1.051,2.285,1.051c0.012,0,0.024-0.003,0.037-0.003l0.305,4.426C33.039,18.596,33.478,19,33.999,19
	c0.023,0,0.046-0.001,0.069-0.002c0.552-0.038,0.967-0.515,0.93-1.066l-0.345-5C34.652,12.917,34.644,12.906,34.642,12.892z
	 M11.813,17.967c-0.034,0.525-0.472,0.936-0.997,0.936l-0.065-0.002c-0.55-0.035-0.969-0.512-0.934-1.063l0.323-4.989
	c0.034-0.523,0.47-0.934,1.058-0.934c0.002,0,0.004,0,0.005,0c0.265,0.017,0.507,0.137,0.685,0.339
	c0.177,0.202,0.266,0.458,0.248,0.723L11.813,17.967z M21.944,6.948l-4.745,1.576c-0.515,0.173-1.096-0.125-1.264-0.633
	c0,0,0,0,0-0.001c-0.174-0.523,0.111-1.09,0.634-1.264l4.745-1.576C21.415,5.017,21.52,5,21.625,5c0.42,0,0.787,0.26,0.934,0.647
	c0.007,0.026,0.014,0.049,0.024,0.074C22.731,6.234,22.455,6.779,21.944,6.948z M28.652,7.493c-0.357-0.419-0.307-1.052,0.112-1.41
	c0.229-0.196,0.479-0.237,0.646-0.237c0.296,0,0.574,0.127,0.764,0.349L33.419,10c0.357,0.419,0.307,1.052-0.112,1.41
	c-0.229,0.196-0.479,0.237-0.646,0.237c-0.296,0-0.574-0.127-0.764-0.349L28.652,7.493z"/>
<g>
</g>
<g>
</g>
<g>
</g>
<g>
</g>
<g>
</g>
<g>
</g>
<g>
</g>
<g>
</g>
<g>
</g>
<g>
</g>
<g>
</g>
<g>
</g>
<g>
</g>
<g>
</g>
<g>
</g>
</svg>
