<?xml version="1.0" encoding="iso-8859-1"?>
<!-- Generator: Adobe Illustrator 19.0.0, SVG Export Plug-In . SVG Version: 6.00 Build 0)  -->
<svg version="1.1" id="Capa_1" xmlns="http://www.w3.org/2000/svg" xmlns:xlink="http://www.w3.org/1999/xlink" x="0px" y="0px"
	 viewBox="0 0 59 59" style="enable-background:new 0 0 59 59;" xml:space="preserve">
<rect x="40" y="21.5" style="fill:#556080;" width="4" height="2"/>
<path style="fill:#D1D4D1;" d="M51,14.5c-4.411,0-8,3.589-8,8s3.589,8,8,8s8-3.589,8-8S55.411,14.5,51,14.5z M56.91,21.5H52v-4.91
	C54.507,17.014,56.486,18.993,56.91,21.5z M50,16.59v4.91h-4.91C45.514,18.993,47.493,17.014,50,16.59z M45.09,23.5H50v4.91
	C47.493,27.986,45.514,26.007,45.09,23.5z M52,28.41V23.5h4.91C56.486,26.007,54.507,27.986,52,28.41z"/>
<rect x="1" y="18.5" style="fill:#556080;" width="39.011" height="7"/>
<rect y="8.5" style="fill:#8697CB;" width="2" height="27"/>
<rect x="39" y="8.5" style="fill:#8697CB;" width="2" height="27"/>
<path style="fill:#D6D1BB;" d="M16.5,42.5L16.5,42.5c-1.381,0-2.5-1.119-2.5-2.5V4c0-1.381,1.119-2.5,2.5-2.5h0
	C17.881,1.5,19,2.619,19,4v36C19,41.381,17.881,42.5,16.5,42.5z"/>
<path style="fill:#D6D1BB;" d="M24.5,42.5L24.5,42.5c-1.381,0-2.5-1.119-2.5-2.5V4c0-1.381,1.119-2.5,2.5-2.5h0
	C25.881,1.5,27,2.619,27,4v36C27,41.381,25.881,42.5,24.5,42.5z"/>
<path style="fill:#D6D1BB;" d="M32.5,42.5L32.5,42.5c-1.381,0-2.5-1.119-2.5-2.5V4c0-1.381,1.119-2.5,2.5-2.5h0
	C33.881,1.5,35,2.619,35,4v36C35,41.381,33.881,42.5,32.5,42.5z"/>
<path style="fill:#D6D1BB;" d="M7,42.5h3c0.365,0,0.704,0.106,1,0.279V4c0-1.381-1.119-2.5-2.5-2.5S6,2.619,6,4v38.779
	C6.296,42.606,6.635,42.5,7,42.5z"/>
<path style="fill:#BDC3C7;" d="M8.5,57.5L8.5,57.5c-0.85,0-1.559-0.648-1.636-1.494L6,44.5h5l-0.864,11.506
	C10.059,56.852,9.35,57.5,8.5,57.5z"/>
<path style="fill:#D6B696;" d="M10,46.5H7c-1.1,0-2-0.9-2-2v0c0-1.1,0.9-2,2-2h3c1.1,0,2,0.9,2,2v0C12,45.6,11.1,46.5,10,46.5z"/>
<g>
</g>
<g>
</g>
<g>
</g>
<g>
</g>
<g>
</g>
<g>
</g>
<g>
</g>
<g>
</g>
<g>
</g>
<g>
</g>
<g>
</g>
<g>
</g>
<g>
</g>
<g>
</g>
<g>
</g>
</svg>
