<?xml version="1.0" encoding="iso-8859-1"?>
<!-- Generator: Adobe Illustrator 19.0.0, SVG Export Plug-In . SVG Version: 6.00 Build 0)  -->
<svg version="1.1" id="Capa_1" xmlns="http://www.w3.org/2000/svg" xmlns:xlink="http://www.w3.org/1999/xlink" x="0px" y="0px"
	 viewBox="0 0 58 58" style="enable-background:new 0 0 58 58;" xml:space="preserve">
<rect style="fill:#A5A5A4;" width="58" height="58"/>
<rect x="7" y="7" style="fill:#38454F;" width="44" height="44"/>
<path style="fill:#8697CB;" d="M11,52c-0.553,0-1-0.447-1-1V7c0-0.553,0.447-1,1-1s1,0.447,1,1v44C12,51.553,11.553,52,11,52z"/>
<path style="fill:#8697CB;" d="M20,52c-0.553,0-1-0.447-1-1V7c0-0.553,0.447-1,1-1s1,0.447,1,1v44C21,51.553,20.553,52,20,52z"/>
<path style="fill:#8697CB;" d="M29,52c-0.553,0-1-0.447-1-1V7c0-0.553,0.447-1,1-1s1,0.447,1,1v44C30,51.553,29.553,52,29,52z"/>
<path style="fill:#8697CB;" d="M38,52c-0.553,0-1-0.447-1-1V7c0-0.553,0.447-1,1-1s1,0.447,1,1v44C39,51.553,38.553,52,38,52z"/>
<path style="fill:#8697CB;" d="M47,52c-0.553,0-1-0.447-1-1V7c0-0.553,0.447-1,1-1s1,0.447,1,1v44C48,51.553,47.553,52,47,52z"/>
<path style="fill:#556080;" d="M52,52H6V6h46V52z M8,50h42V8H8V50z"/>
<g>
</g>
<g>
</g>
<g>
</g>
<g>
</g>
<g>
</g>
<g>
</g>
<g>
</g>
<g>
</g>
<g>
</g>
<g>
</g>
<g>
</g>
<g>
</g>
<g>
</g>
<g>
</g>
<g>
</g>
</svg>
