<?xml version="1.0" encoding="iso-8859-1"?>
<!-- Generator: Adobe Illustrator 19.0.0, SVG Export Plug-In . SVG Version: 6.00 Build 0)  -->
<svg version="1.1" id="Capa_1" xmlns="http://www.w3.org/2000/svg" xmlns:xlink="http://www.w3.org/1999/xlink" x="0px" y="0px"
	 viewBox="0 0 58 58" style="enable-background:new 0 0 58 58;" xml:space="preserve">
<circle style="fill:#E4C05C;" cx="29" cy="29" r="29"/>
<path style="fill:#DDA86F;" d="M0,29c0,16.016,12.984,29,29,29V0C12.984,0,0,12.984,0,29z"/>
<circle style="fill:#BC9064;" cx="12" cy="29" r="8"/>
<circle style="fill:#C6A554;" cx="46" cy="29" r="8"/>
<path style="fill:#606C8C;" d="M37.371,19.371c0-5.089-4.541-9.117-9.792-8.254c-3.299,0.542-5.998,3.104-6.737,6.365
	c-0.692,3.054,0.352,5.899,2.292,7.815c0.727,0.718,1.164,8.696,1.34,9.702l1.038,11.518C25.662,47.375,26.406,48,27.276,48h3.448
	c0.87,0,1.614-0.625,1.763-1.482l1.051-11.59c0.169-0.971,0.595-8.913,1.299-9.602C36.386,23.809,37.371,21.704,37.371,19.371z"/>
<circle style="fill:#D1D4D1;" cx="12" cy="29" r="7"/>
<circle style="fill:#D1D4D1;" cx="46" cy="29" r="7"/>
<path style="fill:#3D324C;" d="M30.707,44.293L29.414,43l1.211-1.211c0.211-0.206,0.332-0.494,0.332-0.789l-0.031-0.487L29.414,39
	l1.211-1.211c0.211-0.206,0.332-0.494,0.332-0.789l-0.031-0.487L29.414,35l1.211-1.211c0.211-0.206,0.332-0.494,0.332-0.789
	l-0.031-0.487L29.414,31l1.211-1.211c0.211-0.206,0.332-0.494,0.332-0.789l-0.031-0.494l-0.122-0.12L30,25.846V19
	c0-0.553-0.448-1-1-1s-1,0.447-1,1v7l0.825,2.761l-1.454,1.455c-0.208,0.205-0.328,0.491-0.328,0.784l0.03,0.487L28.585,33
	l-1.215,1.216c-0.208,0.205-0.328,0.491-0.328,0.784l0.03,0.487L28.585,37l-1.215,1.216c-0.208,0.205-0.328,0.491-0.328,0.784
	l0.03,0.487L28.585,41l-1.215,1.216c-0.208,0.205-0.328,0.491-0.328,0.784l0.03,0.487l2.22,2.22C29.488,45.902,29.744,46,30,46
	s0.512-0.098,0.707-0.293C31.098,45.316,31.098,44.684,30.707,44.293z"/>
<g>
	<polygon style="fill:#FFFFFF;" points="13.293,26.293 12,27.586 10.707,26.293 9.293,27.707 10.586,29 9.293,30.293 10.707,31.707 
		12,30.414 13.293,31.707 14.707,30.293 13.414,29 14.707,27.707 	"/>
	<polygon style="fill:#FFFFFF;" points="48.707,27.707 47.293,26.293 46,27.586 44.707,26.293 43.293,27.707 44.586,29 
		43.293,30.293 44.707,31.707 46,30.414 47.293,31.707 48.707,30.293 47.414,29 	"/>
</g>
<g>
</g>
<g>
</g>
<g>
</g>
<g>
</g>
<g>
</g>
<g>
</g>
<g>
</g>
<g>
</g>
<g>
</g>
<g>
</g>
<g>
</g>
<g>
</g>
<g>
</g>
<g>
</g>
<g>
</g>
</svg>
