<?xml version="1.0" encoding="iso-8859-1"?>
<!-- Generator: Adobe Illustrator 19.0.0, SVG Export Plug-In . SVG Version: 6.00 Build 0)  -->
<svg version="1.1" id="Capa_1" xmlns="http://www.w3.org/2000/svg" xmlns:xlink="http://www.w3.org/1999/xlink" x="0px" y="0px"
	 viewBox="0 0 58 58" style="enable-background:new 0 0 58 58;" xml:space="preserve">
<circle style="fill:#0E9AA7;" cx="29" cy="36" r="22"/>
<circle style="fill:#E6E7E8;" cx="29" cy="36" r="10"/>
<g>
	<path style="fill:#67B9CC;" d="M29,16c-0.552,0-1,0.447-1,1v4c0,0.553,0.448,1,1,1s1-0.447,1-1v-4C30,16.447,29.552,16,29,16z"/>
	<path style="fill:#67B9CC;" d="M29,50c-0.552,0-1,0.447-1,1v4c0,0.553,0.448,1,1,1s1-0.447,1-1v-4C30,50.447,29.552,50,29,50z"/>
	<path style="fill:#67B9CC;" d="M48,35h-4c-0.552,0-1,0.447-1,1s0.448,1,1,1h4c0.552,0,1-0.447,1-1S48.552,35,48,35z"/>
	<path style="fill:#67B9CC;" d="M14,37c0.552,0,1-0.447,1-1s-0.448-1-1-1h-4c-0.552,0-1,0.447-1,1s0.448,1,1,1H14z"/>
	<path style="fill:#67B9CC;" d="M38.899,26.101c0.195,0.195,0.451,0.293,0.707,0.293s0.512-0.098,0.707-0.293l2.829-2.828
		c0.391-0.391,0.391-1.023,0-1.414s-1.023-0.391-1.414,0l-2.829,2.828C38.509,25.077,38.509,25.71,38.899,26.101z"/>
	<path style="fill:#67B9CC;" d="M19.101,45.899c-0.391-0.391-1.023-0.391-1.414,0l-2.829,2.828c-0.391,0.391-0.391,1.023,0,1.414
		c0.195,0.195,0.451,0.293,0.707,0.293s0.512-0.098,0.707-0.293l2.829-2.828C19.491,46.923,19.491,46.29,19.101,45.899z"/>
	<path style="fill:#67B9CC;" d="M40.313,45.899c-0.391-0.391-1.023-0.391-1.414,0s-0.391,1.023,0,1.414l2.829,2.828
		c0.195,0.195,0.451,0.293,0.707,0.293s0.512-0.098,0.707-0.293c0.391-0.391,0.391-1.023,0-1.414L40.313,45.899z"/>
	<path style="fill:#67B9CC;" d="M17.687,26.101c0.195,0.195,0.451,0.293,0.707,0.293s0.512-0.098,0.707-0.293
		c0.391-0.391,0.391-1.023,0-1.414l-2.829-2.828c-0.391-0.391-1.023-0.391-1.414,0s-0.391,1.023,0,1.414L17.687,26.101z"/>
	<path style="fill:#67B9CC;" d="M36,23.876c0.157,0.091,0.33,0.134,0.499,0.134c0.346,0,0.682-0.179,0.867-0.5l2-3.464
		c0.276-0.479,0.112-1.09-0.366-1.366s-1.09-0.113-1.366,0.366l-2,3.464C35.358,22.988,35.521,23.6,36,23.876z"/>
	<path style="fill:#67B9CC;" d="M22,48.124c-0.478-0.276-1.09-0.113-1.366,0.366l-2,3.464c-0.276,0.479-0.112,1.09,0.366,1.366
		c0.157,0.091,0.33,0.134,0.499,0.134c0.346,0,0.682-0.179,0.867-0.5l2-3.464C22.642,49.012,22.479,48.4,22,48.124z"/>
	<path style="fill:#67B9CC;" d="M45.955,44.634l-3.464-2c-0.48-0.276-1.09-0.111-1.366,0.366c-0.276,0.479-0.112,1.09,0.366,1.366
		l3.464,2c0.158,0.091,0.33,0.134,0.499,0.134c0.346,0,0.682-0.18,0.867-0.5C46.597,45.521,46.433,44.91,45.955,44.634z"/>
	<path style="fill:#67B9CC;" d="M12.045,27.366l3.464,2c0.158,0.091,0.33,0.134,0.499,0.134c0.346,0,0.682-0.18,0.867-0.5
		c0.276-0.479,0.112-1.09-0.366-1.366l-3.464-2c-0.48-0.277-1.09-0.112-1.366,0.366S11.567,27.09,12.045,27.366z"/>
	<path style="fill:#67B9CC;" d="M34.176,16.682c-0.536-0.143-1.082,0.174-1.225,0.707l-1.035,3.863
		c-0.143,0.533,0.173,1.082,0.707,1.225c0.087,0.023,0.174,0.034,0.259,0.034c0.441,0,0.846-0.294,0.965-0.741l1.035-3.863
		C35.026,17.373,34.71,16.824,34.176,16.682z"/>
	<path style="fill:#67B9CC;" d="M25.376,49.523c-0.537-0.145-1.082,0.173-1.225,0.707l-1.035,3.863
		c-0.143,0.533,0.173,1.082,0.707,1.225c0.087,0.023,0.174,0.034,0.259,0.034c0.441,0,0.846-0.294,0.965-0.741l1.035-3.863
		C26.227,50.215,25.91,49.666,25.376,49.523z"/>
	<path style="fill:#67B9CC;" d="M47.611,39.952l-3.864-1.036c-0.531-0.144-1.082,0.173-1.225,0.707
		c-0.143,0.533,0.173,1.082,0.707,1.225l3.864,1.036c0.086,0.023,0.174,0.034,0.259,0.034c0.441,0,0.846-0.294,0.965-0.741
		C48.461,40.644,48.145,40.095,47.611,39.952z"/>
	<path style="fill:#67B9CC;" d="M10.389,32.048l3.864,1.036c0.086,0.023,0.174,0.034,0.259,0.034c0.441,0,0.846-0.294,0.965-0.741
		c0.143-0.533-0.173-1.082-0.707-1.225l-3.864-1.036c-0.532-0.145-1.082,0.173-1.225,0.707C9.539,31.356,9.855,31.905,10.389,32.048
		z"/>
	<path style="fill:#67B9CC;" d="M25.048,17.389c-0.143-0.534-0.693-0.852-1.225-0.707c-0.534,0.143-0.85,0.691-0.707,1.225
		l1.035,3.863c0.12,0.447,0.523,0.741,0.965,0.741c0.085,0,0.173-0.011,0.259-0.034c0.534-0.143,0.85-0.691,0.707-1.225
		L25.048,17.389z"/>
	<path style="fill:#67B9CC;" d="M33.848,50.23c-0.143-0.534-0.69-0.854-1.225-0.707c-0.534,0.143-0.85,0.691-0.707,1.225
		l1.035,3.863c0.12,0.447,0.523,0.741,0.965,0.741c0.085,0,0.173-0.011,0.259-0.034c0.534-0.143,0.85-0.691,0.707-1.225
		L33.848,50.23z"/>
	<path style="fill:#67B9CC;" d="M42.523,32.377c0.12,0.447,0.524,0.741,0.965,0.741c0.085,0,0.173-0.011,0.259-0.034l3.864-1.036
		c0.534-0.143,0.85-0.691,0.707-1.225c-0.143-0.534-0.692-0.852-1.225-0.707l-3.864,1.036C42.696,31.295,42.38,31.844,42.523,32.377
		z"/>
	<path style="fill:#67B9CC;" d="M15.477,39.623c-0.143-0.534-0.693-0.852-1.225-0.707l-3.864,1.036
		c-0.534,0.143-0.85,0.691-0.707,1.225c0.12,0.447,0.524,0.741,0.965,0.741c0.085,0,0.173-0.011,0.259-0.034l3.864-1.036
		C15.304,40.705,15.62,40.156,15.477,39.623z"/>
	<path style="fill:#67B9CC;" d="M20.366,19.046C20.09,18.566,19.478,18.403,19,18.68c-0.479,0.276-0.642,0.888-0.366,1.366l2,3.464
		c0.186,0.321,0.521,0.5,0.867,0.5c0.169,0,0.342-0.043,0.499-0.134c0.479-0.276,0.642-0.888,0.366-1.366L20.366,19.046z"/>
	<path style="fill:#67B9CC;" d="M37.366,48.49c-0.277-0.479-0.889-0.643-1.366-0.366c-0.479,0.276-0.642,0.888-0.366,1.366l2,3.464
		c0.186,0.321,0.521,0.5,0.867,0.5c0.169,0,0.342-0.043,0.499-0.134c0.479-0.276,0.642-0.888,0.366-1.366L37.366,48.49z"/>
	<path style="fill:#67B9CC;" d="M41.124,29c0.186,0.321,0.521,0.5,0.867,0.5c0.169,0,0.341-0.043,0.499-0.134l3.464-2
		c0.479-0.276,0.642-0.888,0.366-1.366c-0.277-0.479-0.887-0.644-1.366-0.366l-3.464,2C41.012,27.91,40.848,28.521,41.124,29z"/>
	<path style="fill:#67B9CC;" d="M16.876,43c-0.277-0.479-0.887-0.643-1.366-0.366l-3.464,2c-0.479,0.276-0.642,0.888-0.366,1.366
		c0.186,0.321,0.521,0.5,0.867,0.5c0.169,0,0.341-0.043,0.499-0.134l3.464-2C16.988,44.09,17.152,43.479,16.876,43z"/>
</g>
<path style="fill:#BDC3C7;" d="M30,36c-0.256,0-0.512-0.098-0.707-0.293c-0.391-0.391-0.391-1.023,0-1.414l3-3
	c0.391-0.391,1.023-0.391,1.414,0s0.391,1.023,0,1.414l-3,3C30.512,35.902,30.256,36,30,36z"/>
<path style="fill:#E6E7E8;" d="M39,16.406V13c0-5.071-4.5-9-10-9s-10,3.929-10,9v3.406l-4,2.623V13c0-7.289,6.28-13,14-13
	s14,5.711,14,13v6.029L39,16.406z"/>
<path style="fill:#C9CAC6;" d="M29,4c5.5,0,10,3.929,10,9V13.9v2.506l1.057,0.693v-3.931c0-5.757-4.96-10.267-11.057-10.267
	s-11.057,4.51-11.057,10.267v3.931L19,16.406V13.9V13C19,7.929,23.5,4,29,4z"/>
<g>
</g>
<g>
</g>
<g>
</g>
<g>
</g>
<g>
</g>
<g>
</g>
<g>
</g>
<g>
</g>
<g>
</g>
<g>
</g>
<g>
</g>
<g>
</g>
<g>
</g>
<g>
</g>
<g>
</g>
</svg>
