<?xml version="1.0" encoding="iso-8859-1"?>
<!-- Generator: Adobe Illustrator 19.0.0, SVG Export Plug-In . SVG Version: 6.00 Build 0)  -->
<svg version="1.1" id="Capa_1" xmlns="http://www.w3.org/2000/svg" xmlns:xlink="http://www.w3.org/1999/xlink" x="0px" y="0px"
	 viewBox="0 0 58 58" style="enable-background:new 0 0 58 58;" xml:space="preserve">
<circle style="fill:#0E9AA7;" cx="22" cy="36" r="22"/>
<circle style="fill:#E6E7E8;" cx="22" cy="36" r="10"/>
<g>
	<path style="fill:#67B9CC;" d="M22,16c-0.552,0-1,0.447-1,1v4c0,0.553,0.448,1,1,1s1-0.447,1-1v-4C23,16.447,22.552,16,22,16z"/>
	<path style="fill:#67B9CC;" d="M22,50c-0.552,0-1,0.447-1,1v4c0,0.553,0.448,1,1,1s1-0.447,1-1v-4C23,50.447,22.552,50,22,50z"/>
	<path style="fill:#67B9CC;" d="M41,35h-4c-0.552,0-1,0.447-1,1s0.448,1,1,1h4c0.552,0,1-0.447,1-1S41.552,35,41,35z"/>
	<path style="fill:#67B9CC;" d="M7,37c0.552,0,1-0.447,1-1s-0.448-1-1-1H3c-0.552,0-1,0.447-1,1s0.448,1,1,1H7z"/>
	<path style="fill:#67B9CC;" d="M31.899,26.101c0.195,0.195,0.451,0.293,0.707,0.293s0.512-0.098,0.707-0.293l2.829-2.828
		c0.391-0.391,0.391-1.023,0-1.414s-1.023-0.391-1.414,0l-2.829,2.828C31.509,25.077,31.509,25.71,31.899,26.101z"/>
	<path style="fill:#67B9CC;" d="M12.101,45.899c-0.391-0.391-1.023-0.391-1.414,0l-2.829,2.828c-0.391,0.391-0.391,1.023,0,1.414
		c0.195,0.195,0.451,0.293,0.707,0.293s0.512-0.098,0.707-0.293l2.829-2.828C12.491,46.923,12.491,46.29,12.101,45.899z"/>
	<path style="fill:#67B9CC;" d="M33.313,45.899c-0.391-0.391-1.023-0.391-1.414,0s-0.391,1.023,0,1.414l2.829,2.828
		c0.195,0.195,0.451,0.293,0.707,0.293s0.512-0.098,0.707-0.293c0.391-0.391,0.391-1.023,0-1.414L33.313,45.899z"/>
	<path style="fill:#67B9CC;" d="M10.687,26.101c0.195,0.195,0.451,0.293,0.707,0.293s0.512-0.098,0.707-0.293
		c0.391-0.391,0.391-1.023,0-1.414l-2.829-2.828c-0.391-0.391-1.023-0.391-1.414,0s-0.391,1.023,0,1.414L10.687,26.101z"/>
	<path style="fill:#67B9CC;" d="M29,23.876c0.157,0.091,0.33,0.134,0.499,0.134c0.346,0,0.682-0.179,0.867-0.5l2-3.464
		c0.276-0.479,0.112-1.09-0.366-1.366s-1.09-0.113-1.366,0.366l-2,3.464C28.358,22.988,28.521,23.6,29,23.876z"/>
	<path style="fill:#67B9CC;" d="M15,48.124c-0.479-0.276-1.09-0.113-1.366,0.366l-2,3.464c-0.276,0.479-0.112,1.09,0.366,1.366
		c0.157,0.091,0.33,0.134,0.499,0.134c0.346,0,0.682-0.179,0.867-0.5l2-3.464C15.642,49.012,15.479,48.4,15,48.124z"/>
	<path style="fill:#67B9CC;" d="M38.955,44.634l-3.464-2c-0.48-0.276-1.09-0.111-1.366,0.366c-0.276,0.479-0.112,1.09,0.366,1.366
		l3.464,2c0.158,0.091,0.33,0.134,0.499,0.134c0.346,0,0.682-0.18,0.867-0.5C39.597,45.521,39.433,44.91,38.955,44.634z"/>
	<path style="fill:#67B9CC;" d="M5.045,27.366l3.464,2c0.158,0.091,0.33,0.134,0.499,0.134c0.346,0,0.682-0.18,0.867-0.5
		c0.276-0.479,0.112-1.09-0.366-1.366l-3.464-2C5.566,25.356,4.955,25.521,4.679,26S4.567,27.09,5.045,27.366z"/>
	<path style="fill:#67B9CC;" d="M27.176,16.682c-0.536-0.143-1.082,0.174-1.225,0.707l-1.035,3.863
		c-0.143,0.533,0.173,1.082,0.707,1.225c0.087,0.023,0.174,0.034,0.259,0.034c0.441,0,0.846-0.294,0.965-0.741l1.035-3.863
		C28.026,17.373,27.71,16.824,27.176,16.682z"/>
	<path style="fill:#67B9CC;" d="M18.376,49.523c-0.536-0.145-1.082,0.173-1.225,0.707l-1.035,3.863
		c-0.143,0.533,0.173,1.082,0.707,1.225c0.087,0.023,0.174,0.034,0.259,0.034c0.441,0,0.846-0.294,0.965-0.741l1.035-3.863
		C19.227,50.215,18.91,49.666,18.376,49.523z"/>
	<path style="fill:#67B9CC;" d="M40.611,39.952l-3.864-1.036c-0.533-0.144-1.082,0.173-1.225,0.707
		c-0.143,0.533,0.173,1.082,0.707,1.225l3.864,1.036c0.086,0.023,0.174,0.034,0.259,0.034c0.441,0,0.846-0.294,0.965-0.741
		C41.461,40.644,41.145,40.095,40.611,39.952z"/>
	<path style="fill:#67B9CC;" d="M3.389,32.048l3.864,1.036c0.086,0.023,0.174,0.034,0.259,0.034c0.441,0,0.846-0.294,0.965-0.741
		c0.143-0.533-0.173-1.082-0.707-1.225l-3.864-1.036c-0.531-0.145-1.082,0.173-1.225,0.707C2.539,31.356,2.855,31.905,3.389,32.048z
		"/>
	<path style="fill:#67B9CC;" d="M18.048,17.389c-0.143-0.534-0.692-0.852-1.225-0.707c-0.534,0.143-0.85,0.691-0.707,1.225
		l1.035,3.863c0.12,0.447,0.523,0.741,0.965,0.741c0.085,0,0.173-0.011,0.259-0.034c0.534-0.143,0.85-0.691,0.707-1.225
		L18.048,17.389z"/>
	<path style="fill:#67B9CC;" d="M26.848,50.23c-0.143-0.534-0.693-0.854-1.225-0.707c-0.534,0.143-0.85,0.691-0.707,1.225
		l1.035,3.863c0.12,0.447,0.523,0.741,0.965,0.741c0.085,0,0.173-0.011,0.259-0.034c0.534-0.143,0.85-0.691,0.707-1.225
		L26.848,50.23z"/>
	<path style="fill:#67B9CC;" d="M35.523,32.377c0.12,0.447,0.524,0.741,0.965,0.741c0.085,0,0.173-0.011,0.259-0.034l3.864-1.036
		c0.534-0.143,0.85-0.691,0.707-1.225c-0.143-0.534-0.691-0.852-1.225-0.707l-3.864,1.036C35.696,31.295,35.38,31.844,35.523,32.377
		z"/>
	<path style="fill:#67B9CC;" d="M8.477,39.623c-0.143-0.534-0.692-0.852-1.225-0.707l-3.864,1.036
		c-0.534,0.143-0.85,0.691-0.707,1.225c0.12,0.447,0.524,0.741,0.965,0.741c0.085,0,0.173-0.011,0.259-0.034l3.864-1.036
		C8.304,40.705,8.62,40.156,8.477,39.623z"/>
	<path style="fill:#67B9CC;" d="M13.366,19.046C13.09,18.566,12.478,18.403,12,18.68c-0.479,0.276-0.642,0.888-0.366,1.366l2,3.464
		c0.186,0.321,0.521,0.5,0.867,0.5c0.169,0,0.342-0.043,0.499-0.134c0.479-0.276,0.642-0.888,0.366-1.366L13.366,19.046z"/>
	<path style="fill:#67B9CC;" d="M30.366,48.49c-0.277-0.479-0.889-0.643-1.366-0.366c-0.479,0.276-0.642,0.888-0.366,1.366l2,3.464
		c0.186,0.321,0.521,0.5,0.867,0.5c0.169,0,0.342-0.043,0.499-0.134c0.479-0.276,0.642-0.888,0.366-1.366L30.366,48.49z"/>
	<path style="fill:#67B9CC;" d="M34.124,29c0.186,0.321,0.521,0.5,0.867,0.5c0.169,0,0.341-0.043,0.499-0.134l3.464-2
		c0.479-0.276,0.642-0.888,0.366-1.366c-0.276-0.479-0.887-0.644-1.366-0.366l-3.464,2C34.012,27.91,33.848,28.521,34.124,29z"/>
	<path style="fill:#67B9CC;" d="M9.876,43c-0.277-0.479-0.887-0.643-1.366-0.366l-3.464,2C4.567,44.91,4.403,45.521,4.679,46
		c0.186,0.321,0.521,0.5,0.867,0.5c0.169,0,0.341-0.043,0.499-0.134l3.464-2C9.988,44.09,10.152,43.479,9.876,43z"/>
</g>
<path style="fill:#BDC3C7;" d="M23,36c-0.256,0-0.512-0.098-0.707-0.293c-0.391-0.391-0.391-1.023,0-1.414l3-3
	c0.391-0.391,1.023-0.391,1.414,0s0.391,1.023,0,1.414l-3,3C23.512,35.902,23.256,36,23,36z"/>
<path style="fill:#E6E7E8;" d="M44,0c-7.72,0-14,5.711-14,13v2.507c1.41,0.551,2.749,1.242,4,2.058V13c0-5.071,4.5-9,10-9
	s10,3.929,10,9v6l4,0.029V13C58,5.711,51.72,0,44,0z"/>
<path style="fill:#C9CAC6;" d="M44,2c-6.908,0-12.529,5.111-12.529,11.634v2.537c0.872,0.417,1.724,0.869,2.529,1.394V13
	c0-5.071,4.5-9,10-9s10,3.929,10,9v6l2.529,0.018v-5.385C56.529,7.111,50.908,2,44,2z"/>
<g>
</g>
<g>
</g>
<g>
</g>
<g>
</g>
<g>
</g>
<g>
</g>
<g>
</g>
<g>
</g>
<g>
</g>
<g>
</g>
<g>
</g>
<g>
</g>
<g>
</g>
<g>
</g>
<g>
</g>
</svg>
