<?xml version="1.0" encoding="iso-8859-1"?>
<!-- Generator: Adobe Illustrator 19.0.0, SVG Export Plug-In . SVG Version: 6.00 Build 0)  -->
<svg version="1.1" id="Capa_1" xmlns="http://www.w3.org/2000/svg" xmlns:xlink="http://www.w3.org/1999/xlink" x="0px" y="0px"
	 viewBox="0 0 56 56" style="enable-background:new 0 0 56 56;" xml:space="preserve">
<path style="fill:#546A79;" d="M50.818,39H5.182C3.425,39,2,37.575,2,35.818v-7.636C2,26.425,3.425,25,5.182,25h45.636
	C52.575,25,54,26.425,54,28.182v7.636C54,37.575,52.575,39,50.818,39z"/>
<rect x="10" style="fill:#F0EDE0;" width="36" height="25"/>
<circle style="fill:#ECF0F1;" cx="47" cy="32" r="3"/>
<circle style="fill:#ECF0F1;" cx="37" cy="32" r="3"/>
<circle style="fill:#A4E869;" cx="9" cy="32" r="3"/>
<g>
	<path style="fill:#D6D1BB;" d="M31.71,13.71C31.89,13.52,32,13.26,32,13s-0.11-0.521-0.29-0.71c-0.37-0.37-1.05-0.37-1.42,0
		C30.109,12.479,30,12.74,30,13s0.109,0.52,0.29,0.71C30.479,13.89,30.729,14,31,14C31.26,14,31.52,13.89,31.71,13.71z"/>
	<path style="fill:#D6D1BB;" d="M34,12c-0.553,0-1,0.447-1,1s0.447,1,1,1h6c0.553,0,1-0.447,1-1s-0.447-1-1-1H34z"/>
	<path style="fill:#D6D1BB;" d="M37,18h-5c-0.553,0-1,0.447-1,1s0.447,1,1,1h5c0.553,0,1-0.447,1-1S37.553,18,37,18z"/>
	<path style="fill:#D6D1BB;" d="M40.29,18.29C40.109,18.479,40,18.729,40,19c0,0.26,0.109,0.52,0.29,0.71
		C40.479,19.89,40.74,20,41,20s0.52-0.11,0.71-0.29C41.89,19.52,42,19.26,42,19c0-0.271-0.11-0.521-0.29-0.71
		C41.33,17.92,40.66,17.92,40.29,18.29z"/>
	<path style="fill:#D6D1BB;" d="M16,14h11c0.553,0,1-0.447,1-1s-0.447-1-1-1H16c-0.553,0-1,0.447-1,1S15.447,14,16,14z"/>
	<path style="fill:#D6D1BB;" d="M19,18h-3c-0.553,0-1,0.447-1,1s0.447,1,1,1h3c0.553,0,1-0.447,1-1S19.553,18,19,18z"/>
	<path style="fill:#D6D1BB;" d="M28,18h-5c-0.553,0-1,0.447-1,1s0.447,1,1,1h5c0.553,0,1-0.447,1-1S28.553,18,28,18z"/>
	<path style="fill:#D6D1BB;" d="M20,8h5c0.553,0,1-0.447,1-1s-0.447-1-1-1h-5c-0.553,0-1,0.447-1,1S19.447,8,20,8z"/>
	<path style="fill:#D6D1BB;" d="M16,8c0.26,0,0.52-0.11,0.71-0.29C16.89,7.52,17,7.26,17,7s-0.11-0.521-0.29-0.71
		c-0.37-0.37-1.04-0.37-1.42,0C15.109,6.479,15,6.74,15,7c0,0.27,0.109,0.52,0.29,0.71C15.479,7.89,15.74,8,16,8z"/>
	<path style="fill:#D6D1BB;" d="M38,8h3c0.553,0,1-0.447,1-1s-0.447-1-1-1h-3c-0.553,0-1,0.447-1,1S37.447,8,38,8z"/>
	<path style="fill:#D6D1BB;" d="M35,7c0-0.553-0.447-1-1-1h-5c-0.553,0-1,0.447-1,1s0.447,1,1,1h5C34.553,8,35,7.553,35,7z"/>
</g>
<g>
	<rect x="12" y="39" style="fill:#F0EDE0;" width="2" height="17"/>
	<rect x="17" y="39" style="fill:#F0EDE0;" width="2" height="17"/>
	<rect x="22" y="39" style="fill:#F0EDE0;" width="2" height="17"/>
	<rect x="27" y="39" style="fill:#F0EDE0;" width="2" height="17"/>
	<rect x="32" y="39" style="fill:#F0EDE0;" width="2" height="17"/>
	<rect x="37" y="39" style="fill:#F0EDE0;" width="2" height="17"/>
	<rect x="42" y="39" style="fill:#F0EDE0;" width="2" height="17"/>
</g>
<g>
</g>
<g>
</g>
<g>
</g>
<g>
</g>
<g>
</g>
<g>
</g>
<g>
</g>
<g>
</g>
<g>
</g>
<g>
</g>
<g>
</g>
<g>
</g>
<g>
</g>
<g>
</g>
<g>
</g>
</svg>
