<?xml version="1.0" encoding="iso-8859-1"?>
<!-- Generator: Adobe Illustrator 19.0.0, SVG Export Plug-In . SVG Version: 6.00 Build 0)  -->
<svg version="1.1" id="Capa_1" xmlns="http://www.w3.org/2000/svg" xmlns:xlink="http://www.w3.org/1999/xlink" x="0px" y="0px"
	 viewBox="0 0 58 58" style="enable-background:new 0 0 58 58;" xml:space="preserve">
<rect x="8" y="53.5" style="fill:#A5A5A4;" width="12" height="4"/>
<rect x="37" y="53.5" style="fill:#A5A5A4;" width="12" height="4"/>
<path style="fill:#8697CB;" d="M48.289,53.5H9.711C4.9,53.5,1,49.6,1,44.789V10.211C1,5.4,4.9,1.5,9.711,1.5h38.578
	C53.1,1.5,57,5.4,57,10.211v34.578C57,49.6,53.1,53.5,48.289,53.5z"/>
<path style="fill:#556080;" d="M48.289,0.5H9.711C4.356,0.5,0,4.856,0,10.211v34.578C0,50.144,4.356,54.5,9.711,54.5h38.578
	c5.354,0,9.711-4.356,9.711-9.711V10.211C58,4.856,53.644,0.5,48.289,0.5z M56,44.789c0,4.252-3.459,7.711-7.711,7.711H30v-10
	c0-0.552-0.447-1-1-1s-1,0.448-1,1v10H9.711C5.459,52.5,2,49.041,2,44.789V10.211C2,5.959,5.459,2.5,9.711,2.5H28v10
	c0,0.552,0.447,1,1,1s1-0.448,1-1v-10h18.289C52.541,2.5,56,5.959,56,10.211V44.789z"/>
<g>
	<circle style="fill:#556080;" cx="29" cy="27.5" r="11"/>
	<path style="fill:#FFFFFF;" d="M29,39.5c-6.617,0-12-5.383-12-12s5.383-12,12-12s12,5.383,12,12S35.617,39.5,29,39.5z M29,17.5
		c-5.514,0-10,4.486-10,10s4.486,10,10,10s10-4.486,10-10S34.514,17.5,29,17.5z"/>
</g>
<g>
	<path style="fill:#556080;" d="M29,31.5c-2.206,0-4-1.794-4-4s1.794-4,4-4s4,1.794,4,4S31.206,31.5,29,31.5z"/>
	<path style="fill:#FFFFFF;" d="M29,32.5c-2.757,0-5-2.243-5-5s2.243-5,5-5s5,2.243,5,5S31.757,32.5,29,32.5z M29,24.5
		c-1.654,0-3,1.346-3,3s1.346,3,3,3s3-1.346,3-3S30.654,24.5,29,24.5z"/>
</g>
<circle style="fill:#FFFFFF;" cx="10" cy="44.5" r="3"/>
<circle style="fill:#FFFFFF;" cx="48" cy="44.5" r="3"/>
<g>
	<line style="fill:#556080;" x1="29" y1="16.5" x2="29" y2="20.5"/>
	<path style="fill:#FFFFFF;" d="M29,21.5c-0.553,0-1-0.448-1-1v-4c0-0.552,0.447-1,1-1s1,0.448,1,1v4C30,21.052,29.553,21.5,29,21.5
		z"/>
</g>
<g>
	<line style="fill:#556080;" x1="29" y1="34.5" x2="29" y2="38.5"/>
	<path style="fill:#FFFFFF;" d="M29,39.5c-0.553,0-1-0.448-1-1v-4c0-0.552,0.447-1,1-1s1,0.448,1,1v4C30,39.052,29.553,39.5,29,39.5
		z"/>
</g>
<g>
	<line style="fill:#556080;" x1="40" y1="27.5" x2="36" y2="27.5"/>
	<path style="fill:#FFFFFF;" d="M40,28.5h-4c-0.553,0-1-0.448-1-1s0.447-1,1-1h4c0.553,0,1,0.448,1,1S40.553,28.5,40,28.5z"/>
</g>
<g>
	<line style="fill:#556080;" x1="22" y1="27.5" x2="18" y2="27.5"/>
	<path style="fill:#FFFFFF;" d="M22,28.5h-4c-0.553,0-1-0.448-1-1s0.447-1,1-1h4c0.553,0,1,0.448,1,1S22.553,28.5,22,28.5z"/>
</g>
<g>
	<line style="fill:#556080;" x1="36.778" y1="19.722" x2="33.95" y2="22.55"/>
	<path style="fill:#FFFFFF;" d="M33.95,23.55c-0.256,0-0.512-0.098-0.707-0.293c-0.391-0.39-0.391-1.023,0-1.414l2.828-2.829
		c0.391-0.391,1.023-0.391,1.414,0c0.391,0.39,0.391,1.023,0,1.414l-2.828,2.829C34.462,23.453,34.206,23.55,33.95,23.55z"/>
</g>
<g>
	<line style="fill:#556080;" x1="24.05" y1="32.45" x2="21.222" y2="35.278"/>
	<path style="fill:#FFFFFF;" d="M21.222,36.278c-0.256,0-0.512-0.098-0.707-0.293c-0.391-0.39-0.391-1.023,0-1.414l2.828-2.829
		c0.391-0.391,1.023-0.391,1.414,0c0.391,0.39,0.391,1.023,0,1.414l-2.828,2.829C21.733,36.181,21.478,36.278,21.222,36.278z"/>
</g>
<g>
	<line style="fill:#556080;" x1="36.778" y1="35.278" x2="33.95" y2="32.45"/>
	<path style="fill:#FFFFFF;" d="M36.778,36.278c-0.256,0-0.512-0.098-0.707-0.293l-2.828-2.829c-0.391-0.391-0.391-1.024,0-1.414
		c0.391-0.391,1.023-0.391,1.414,0l2.828,2.829c0.391,0.391,0.391,1.024,0,1.414C37.29,36.181,37.034,36.278,36.778,36.278z"/>
</g>
<g>
	<line style="fill:#556080;" x1="24.05" y1="22.55" x2="21.222" y2="19.722"/>
	<path style="fill:#FFFFFF;" d="M24.05,23.55c-0.256,0-0.512-0.098-0.707-0.293l-2.828-2.829c-0.391-0.391-0.391-1.024,0-1.414
		c0.391-0.391,1.023-0.391,1.414,0l2.828,2.829c0.391,0.391,0.391,1.024,0,1.414C24.562,23.453,24.306,23.55,24.05,23.55z"/>
</g>
<g>
</g>
<g>
</g>
<g>
</g>
<g>
</g>
<g>
</g>
<g>
</g>
<g>
</g>
<g>
</g>
<g>
</g>
<g>
</g>
<g>
</g>
<g>
</g>
<g>
</g>
<g>
</g>
<g>
</g>
</svg>
