<?xml version="1.0" encoding="iso-8859-1"?>
<!-- Generator: Adobe Illustrator 19.0.0, SVG Export Plug-In . SVG Version: 6.00 Build 0)  -->
<svg version="1.1" id="Capa_1" xmlns="http://www.w3.org/2000/svg" xmlns:xlink="http://www.w3.org/1999/xlink" x="0px" y="0px"
	 viewBox="0 0 58 58" style="enable-background:new 0 0 58 58;" xml:space="preserve">
<rect y="41.5" style="fill:#8697CB;" width="12" height="12"/>
<rect x="49" y="41.5" style="fill:#8697CB;" width="9" height="12"/>
<path style="fill:#556080;" d="M46.649,55.5H36.351C35.052,55.5,34,54.448,34,53.149V41.851c0-1.298,1.052-2.351,2.351-2.351h10.299
	c1.298,0,2.351,1.052,2.351,2.351v11.299C49,54.448,47.948,55.5,46.649,55.5z"/>
<rect x="39" y="44.5" style="fill:#D75A4A;" width="5" height="6"/>
<polygon style="fill:#C9CFD3;" points="24,52.5 21,55.5 16,55.5 16,39.5 21,39.5 24,42.5 "/>
<path style="fill:#E6E7E8;" d="M27.896,52.5H24v-10h3.896c1.162,0,2.104,0.942,2.104,2.104v5.791C30,51.558,29.058,52.5,27.896,52.5
	z"/>
<line style="fill:none;stroke:#BDC3C7;stroke-width:2;stroke-linejoin:round;stroke-miterlimit:10;" x1="27" y1="45.5" x2="27" y2="49.5"/>
<polygon style="fill:#556080;" points="40,2.5 0,41.5 12,41.5 12,39.5 16,39.5 19.456,39.5 56.971,2.5 "/>
<rect x="8" y="39.5" style="fill:#40495E;" width="8" height="16"/>
<g>
</g>
<g>
</g>
<g>
</g>
<g>
</g>
<g>
</g>
<g>
</g>
<g>
</g>
<g>
</g>
<g>
</g>
<g>
</g>
<g>
</g>
<g>
</g>
<g>
</g>
<g>
</g>
<g>
</g>
</svg>
