<?xml version="1.0" encoding="iso-8859-1"?>
<!-- Generator: Adobe Illustrator 19.0.0, SVG Export Plug-In . SVG Version: 6.00 Build 0)  -->
<svg version="1.1" id="Capa_1" xmlns="http://www.w3.org/2000/svg" xmlns:xlink="http://www.w3.org/1999/xlink" x="0px" y="0px"
	 viewBox="0 0 58.052 58.052" style="enable-background:new 0 0 58.052 58.052;" xml:space="preserve">
<path style="fill:#ECF0F1;" d="M40.052,7.026h-22h0h-18c0,0,10.083,3.833,12,8h5c0,1.5,1,2.595,1,4c0,6.627-2.962,12-6,12h28
	c3.355-0.532,5.957-4.895,5.957-12C46.008,11.92,43.407,7.558,40.052,7.026z"/>
<path style="fill:#556080;" d="M55.963,51.026H54.14c-1.153,0-2.088-0.935-2.088-2.088V34.114c0-1.153,0.935-2.088,2.088-2.088
	h1.823c1.153,0,2.088,0.935,2.088,2.088v14.823C58.052,50.091,57.117,51.026,55.963,51.026z"/>
<rect x="40.052" y="39.026" style="fill:#8697CB;" width="12" height="6"/>
<path style="fill:#556080;" d="M34.052,31.026h6v13.967c0,1.123-0.91,2.033-2.033,2.033h-1.934c-1.123,0-2.033-0.91-2.033-2.033
	V31.026z"/>
<path style="fill:#8697CB;" d="M18.052,19.026c0-1.405-0.127-2.747-0.349-4h-4.651h-1c-0.687-1.492-2.422-2.941-4.365-4.187
	c-1.009,2.141-1.635,5.011-1.635,8.187c0,6.627,2.686,12,6,12C15.089,31.026,18.052,25.653,18.052,19.026z"/>
<circle style="fill:#556080;" cx="31.052" cy="26.026" r="1"/>
<circle style="fill:#556080;" cx="27.052" cy="26.026" r="1"/>
<circle style="fill:#556080;" cx="23.052" cy="26.026" r="1"/>
<path style="fill:#D1D4D1;" d="M40.052,7.026h-22h0h-18c0,0,10.083,3.833,12,8h6h2l4,4h21.957
	C46.008,11.92,43.407,7.558,40.052,7.026z"/>
<g>
	<path style="fill:#5E5F62;" d="M8.44,11.341c0.041,0.029,0.081,0.058,0.122,0.087C8.52,11.399,8.481,11.37,8.44,11.341z"/>
	<path style="fill:#5E5F62;" d="M9.154,11.858L9.154,11.858c-0.005-0.005-0.01-0.008-0.016-0.012
		C9.144,11.849,9.149,11.854,9.154,11.858z"/>
	<path style="fill:#5E5F62;" d="M7.686,10.84C4.204,8.606,0.052,7.026,0.052,7.026s-1.096,5.9,6.824,5.992
		C7.106,12.233,7.375,11.498,7.686,10.84z"/>
	<path style="fill:#5E5F62;" d="M7.711,10.855c0.028,0.018,0.055,0.037,0.083,0.055C7.766,10.892,7.739,10.873,7.711,10.855z"/>
</g>
<path style="fill:#556080;" d="M14.052,17.692c0-1.021-0.133-1.914-0.334-2.667h-1.666c-0.241-0.523-0.61-1.041-1.072-1.546
	c-0.491,0.913-0.928,2.352-0.928,4.213c0,3.318,1.389,5.333,2,5.333S14.052,21.011,14.052,17.692z"/>
<path style="fill:#D0E8F9;" d="M11.956,21.296c0-0.486-0.186-1.27-0.952-1.27s-0.952,0.384-0.952,1.27c0,1.58,0.661,2.54,0.952,2.54
	C11.295,23.836,11.956,22.876,11.956,21.296z"/>
<g>
</g>
<g>
</g>
<g>
</g>
<g>
</g>
<g>
</g>
<g>
</g>
<g>
</g>
<g>
</g>
<g>
</g>
<g>
</g>
<g>
</g>
<g>
</g>
<g>
</g>
<g>
</g>
<g>
</g>
</svg>
