<?xml version="1.0" encoding="iso-8859-1"?>
<!-- Generator: Adobe Illustrator 19.0.0, SVG Export Plug-In . SVG Version: 6.00 Build 0)  -->
<svg version="1.1" id="Capa_1" xmlns="http://www.w3.org/2000/svg" xmlns:xlink="http://www.w3.org/1999/xlink" x="0px" y="0px"
	 viewBox="0 0 58 58" style="enable-background:new 0 0 58 58;" xml:space="preserve">
<rect y="11" style="fill:#7D7E83;" width="58" height="10"/>
<path style="fill:#ECF0F1;" d="M58,21c0,16.016-12.984,30-29,30S0,37.016,0,21H58z"/>
<rect x="3" y="7" style="fill:#D1D4D1;" width="51" height="4"/>
<rect x="20" y="11" style="fill:#9CA1B7;" width="6" height="10"/>
<rect x="26" y="11" style="fill:#575E6E;" width="6" height="10"/>
<rect x="32" y="11" style="fill:#9CA1B7;" width="6" height="10"/>
<path style="fill:#BDC3C7;" d="M29,51c9.955,0,18.736-5.404,23.958-13.339C47.736,30.018,38.955,25,29,25
	S10.264,30.018,5.042,37.661C10.264,45.596,19.045,51,29,51z"/>
<circle style="fill:#8697CB;" cx="29" cy="38" r="13"/>
<circle style="fill:#556080;" cx="29" cy="38" r="9"/>
<path style="fill:#FFFFFF;" d="M33,42c-0.26,0-0.52-0.11-0.71-0.29C32.11,41.52,32,41.26,32,41c0-0.26,0.11-0.52,0.29-0.71
	c0.38-0.37,1.04-0.37,1.42,0C33.89,40.48,34,40.74,34,41c0,0.26-0.11,0.52-0.29,0.71C33.52,41.89,33.26,42,33,42z"/>
<path style="fill:#FFFFFF;" d="M28,34c-0.26,0-0.52-0.11-0.71-0.29C27.11,33.52,27,33.26,27,33c0-0.26,0.11-0.52,0.29-0.71
	c0.37-0.37,1.04-0.37,1.42,0C28.89,32.48,29,32.74,29,33c0,0.26-0.11,0.52-0.29,0.71C28.52,33.89,28.26,34,28,34z"/>
<path style="fill:#FFFFFF;" d="M34,38c-0.552,0-1-0.448-1-1c0-1.626-0.916-3-2-3c-0.552,0-1-0.448-1-1s0.448-1,1-1
	c2.206,0,4,2.243,4,5C35,37.552,34.552,38,34,38z"/>
<g>
</g>
<g>
</g>
<g>
</g>
<g>
</g>
<g>
</g>
<g>
</g>
<g>
</g>
<g>
</g>
<g>
</g>
<g>
</g>
<g>
</g>
<g>
</g>
<g>
</g>
<g>
</g>
<g>
</g>
</svg>
