<?xml version="1.0" encoding="iso-8859-1"?>
<!-- Generator: Adobe Illustrator 19.0.0, SVG Export Plug-In . SVG Version: 6.00 Build 0)  -->
<svg version="1.1" id="Capa_1" xmlns="http://www.w3.org/2000/svg" xmlns:xlink="http://www.w3.org/1999/xlink" x="0px" y="0px"
	 viewBox="0 0 58 58" style="enable-background:new 0 0 58 58;" xml:space="preserve">
<path style="fill:#38454F;" d="M43.038,58H16.962C15.326,58,14,56.674,14,55.038V2.962C14,1.326,15.326,0,16.962,0h26.077
	C44.674,0,46,1.326,46,2.962v52.077C46,56.674,44.674,58,43.038,58z"/>
<rect x="14" y="6" style="fill:#88C057;" width="32" height="44"/>
<g>
	<path style="fill:#333F45;" d="M34,2h-5c-0.552,0-1,0.447-1,1s0.448,1,1,1h5c0.552,0,1-0.447,1-1S34.552,2,34,2z"/>
	<path style="fill:#333F45;" d="M26,2h-1c-0.552,0-1,0.447-1,1s0.448,1,1,1h1c0.552,0,1-0.447,1-1S26.552,2,26,2z"/>
</g>
<line style="fill:none;stroke:#D4DBDF;stroke-width:2;stroke-linecap:round;stroke-miterlimit:10;" x1="13" y1="9" x2="13" y2="10"/>
<line style="fill:none;stroke:#D4DBDF;stroke-width:2;stroke-linecap:round;stroke-miterlimit:10;" x1="13" y1="13" x2="13" y2="14"/>
<line style="fill:none;stroke:#D4DBDF;stroke-width:2;stroke-linecap:round;stroke-miterlimit:10;" x1="13" y1="17" x2="13" y2="18"/>
<circle style="fill:#333F45;" cx="30" cy="54" r="3"/>
<rect x="23" y="27" style="fill:#F0C419;" width="15" height="12"/>
<path style="fill:none;stroke:#556080;stroke-width:2;stroke-linejoin:round;stroke-miterlimit:10;" d="M26,27v-3.5
	c0-2.475,2.025-4.5,4.5-4.5h0c2.475,0,4.5,2.025,4.5,4.5V27"/>
<g>
</g>
<g>
</g>
<g>
</g>
<g>
</g>
<g>
</g>
<g>
</g>
<g>
</g>
<g>
</g>
<g>
</g>
<g>
</g>
<g>
</g>
<g>
</g>
<g>
</g>
<g>
</g>
<g>
</g>
</svg>
