<?xml version="1.0" encoding="iso-8859-1"?>
<!-- Generator: Adobe Illustrator 19.0.0, SVG Export Plug-In . SVG Version: 6.00 Build 0)  -->
<svg version="1.1" id="Capa_1" xmlns="http://www.w3.org/2000/svg" xmlns:xlink="http://www.w3.org/1999/xlink" x="0px" y="0px"
	 viewBox="0 0 58 58" style="enable-background:new 0 0 58 58;" xml:space="preserve">
<rect x="2" y="12" style="fill:#556080;" width="54" height="12"/>
<polygon style="fill:#F0C419;" points="10,24 3,24 9,12 16,12 "/>
<polygon style="fill:#F0C419;" points="30,24 23,24 29,12 36,12 "/>
<polygon style="fill:#F0C419;" points="49,24 42,24 48,12 55,12 "/>
<circle style="fill:#DF4D60;" cx="14.5" cy="4.5" r="4.5"/>
<circle style="fill:#DF4D60;" cx="43.5" cy="4.5" r="4.5"/>
<path style="fill:#CBB292;" d="M14.5,9c-0.926,0-1.785-0.281-2.5-0.76V12h5V8.24C16.285,8.719,15.426,9,14.5,9z"/>
<path style="fill:#CBB292;" d="M43.5,9c-0.926,0-1.785-0.281-2.5-0.76V12h5V8.24C45.285,8.719,44.426,9,43.5,9z"/>
<polygon style="fill:#7F5B53;" points="46,58 53,58 41,24 34,24 37.857,36 20.143,36 24,24 17,24 5,58 12,58 18,42 40,42 "/>
<g>
</g>
<g>
</g>
<g>
</g>
<g>
</g>
<g>
</g>
<g>
</g>
<g>
</g>
<g>
</g>
<g>
</g>
<g>
</g>
<g>
</g>
<g>
</g>
<g>
</g>
<g>
</g>
<g>
</g>
</svg>
