<?xml version="1.0" encoding="iso-8859-1"?>
<!-- Generator: Adobe Illustrator 19.0.0, SVG Export Plug-In . SVG Version: 6.00 Build 0)  -->
<svg version="1.1" id="Capa_1" xmlns="http://www.w3.org/2000/svg" xmlns:xlink="http://www.w3.org/1999/xlink" x="0px" y="0px"
	 viewBox="0 0 53.753 53.753" style="enable-background:new 0 0 53.753 53.753;" xml:space="preserve">
<path style="fill:#EEAA5B;" d="M51.716,36.875l-12.52-4.006l0.073,0.265c0.406,1.472,0.048,3.07-1.013,4.167
	c-1.581,1.634-4.844,3.452-11.54,3.452s-9.959-1.817-11.54-3.452c-1.061-1.097-1.419-2.695-1.013-4.167l0.413-1.496L1.954,36.913
	c-1.528,0.873-1.67,3.022-0.27,4.088L25.869,53.25c0.848,0.646,2.017,0.672,2.892,0.063l23.221-12.242
	C53.499,40.017,53.353,37.73,51.716,36.875z"/>
<path style="fill:#F0C419;" d="M26.716,18.753c3.277,0,6.589-1.393,7.86-1.992c0.053-0.025,0.11-0.026,0.165-0.041l-2.104-7.627
	c-0.105,0.282-0.32,0.519-0.63,0.613L31.28,9.933c-1.392,0.44-2.593,0.82-4.563,0.82c-2.284,0-3.287-0.348-4.805-0.875l-0.519-0.179
	c-0.294-0.101-0.498-0.33-0.6-0.6l-2.127,7.709c0.069,0.019,0.139,0.026,0.205,0.06C21.178,18.084,23.964,18.753,26.716,18.753z"/>
<path style="fill:#F0C419;" d="M22.039,7.807l0.528,0.182c1.466,0.509,2.201,0.764,4.148,0.764c1.662,0,2.626-0.305,3.96-0.727
	l0.749-0.233c0.33-0.101,0.658-0.009,0.906,0.19l-0.615-2.23c-0.479-1.519-0.986-2.708-1.485-3.639
	c-1.515-2.823-5.63-2.821-7.108,0.022c-0.483,0.928-0.964,2.111-1.407,3.618L21.1,7.988C21.357,7.781,21.702,7.692,22.039,7.807z"/>
<path style="fill:#F0C419;" d="M27.071,29.753c4.709,0,8.203-1.898,9.764-3.524c0.13-0.135,0.292-0.209,0.46-0.255l-2.023-7.333
	c-1.483,0.686-4.99,2.112-8.555,2.112c-2.996,0-6.031-0.72-8.581-2.02l-1.951,7.073c0.202,0.055,0.393,0.158,0.531,0.337
	C18.378,28.302,22.54,29.753,27.071,29.753z"/>
<path style="fill:#F0C419;" d="M39.27,33.134l-1.415-5.129c-2.041,1.878-5.798,3.748-10.784,3.748
	c-4.835,0-9.223-1.491-11.466-3.844l-1.442,5.226c-0.406,1.472-0.048,3.07,1.013,4.167c1.581,1.634,4.844,3.452,11.54,3.452
	s9.959-1.817,11.54-3.452C39.318,36.204,39.676,34.606,39.27,33.134z"/>
<path style="fill:#F9F7E4;" d="M37.855,28.005l-0.56-2.031c-0.168,0.046-0.33,0.12-0.46,0.255c-1.561,1.626-5.055,3.524-9.764,3.524
	c-4.53,0-8.692-1.451-10.355-3.61c-0.137-0.179-0.328-0.282-0.531-0.337l-0.58,2.103c2.243,2.353,6.632,3.844,11.466,3.844
	C32.056,31.753,35.814,29.883,37.855,28.005z"/>
<path style="fill:#F9F7E4;" d="M35.272,18.641l-0.53-1.921c-0.055,0.015-0.112,0.015-0.165,0.041
	c-1.271,0.599-4.583,1.992-7.86,1.992c-2.752,0-5.538-0.669-7.845-1.885c-0.066-0.035-0.136-0.041-0.205-0.06l-0.531,1.925
	c2.55,1.301,5.585,2.02,8.581,2.02C30.281,20.753,33.788,19.328,35.272,18.641z"/>
<path style="fill:#F9F7E4;" d="M21.393,9.699l0.519,0.179c1.518,0.526,2.521,0.875,4.805,0.875c1.971,0,3.172-0.38,4.563-0.82
	l0.728-0.228c0.31-0.094,0.525-0.331,0.63-0.613l-0.306-1.11c-0.248-0.199-0.576-0.291-0.906-0.19l-0.749,0.233
	c-1.334,0.422-2.298,0.727-3.96,0.727c-1.947,0-2.683-0.255-4.148-0.764l-0.528-0.182c-0.337-0.115-0.682-0.026-0.94,0.181
	l-0.307,1.111C20.895,9.37,21.098,9.599,21.393,9.699z"/>
<path style="fill:#E09B58;" d="M14.575,31.638L1.987,36.899l23.92,11.377c1.124,0.605,2.482,0.586,3.588-0.053l22.245-11.331
	c-0.009-0.005-0.015-0.013-0.025-0.017l-12.52-4.006l0.073,0.265c0.406,1.472,0.048,3.07-1.013,4.167
	c-1.581,1.634-4.844,3.452-11.54,3.452s-9.959-1.817-11.54-3.452c-1.061-1.097-1.419-2.695-1.013-4.167L14.575,31.638z"/>
<path style="fill:#B77D4E;" d="M42.716,34.753c0-0.263-0.03-0.522-0.068-0.779l-3.452-1.105l0.073,0.265
	c0.406,1.472,0.048,3.07-1.013,4.167c-1.581,1.634-4.844,3.452-11.54,3.452s-9.959-1.817-11.54-3.452
	c-1.061-1.097-1.419-2.695-1.013-4.167l0.413-1.496l-2.415,1.009c-0.28,0.677-0.444,1.379-0.444,2.106c0,4.971,6.94,9,15.5,9
	S42.716,39.724,42.716,34.753z"/>
<g>
</g>
<g>
</g>
<g>
</g>
<g>
</g>
<g>
</g>
<g>
</g>
<g>
</g>
<g>
</g>
<g>
</g>
<g>
</g>
<g>
</g>
<g>
</g>
<g>
</g>
<g>
</g>
<g>
</g>
</svg>
